<svg xmlns="http://www.w3.org/2000/svg" width="114.5" height="28" role="img" aria-label="arduino">
  <title>arduino</title>
  <g shape-rendering="crispEdges">
    <rect width="35" height="28" fill="#1faa9e"/>
    <rect x="35" width="79.5" height="28" fill="#c0bbae"/>
  </g>
  <g fill="#191919" text-anchor="middle" font-family="Verdana,Geneva,DejaVu Sans,sans-serif" text-rendering="geometricPrecision" font-size="14">
    <!-- Icon area -->
    
         <g transform="translate(10.5, 7.0)">
            <rect x="2" y="2" width="10" height="10" fill="#191919"/>
            <path d="M2,4 L0,4 M2,7 L0,7 M2,10 L0,10 M4,2 L4,0 M7,2 L7,0 M10,2 L10,0 M12,4 L14,4 M12,7 L14,7 M12,10 L14,10 M4,12 L4,14 M7,12 L7,14 M10,12 L10,14" stroke="#191919" stroke-width="1.5"/>
         </g>
         
    
    <!-- Divider X -->
    <text x="35" y="19.0" text-anchor="middle" font-weight="bold" font-family="Verdana,Geneva,DejaVu Sans,sans-serif" font-size="14" fill="#191919">X</text>
    
    <!-- Label -->
    <text x="74.75" y="19.0" font-weight="bold" fill="#191919">arduino</text>
  </g>
</svg>