<svg xmlns="http://www.w3.org/2000/svg" width="89.0" height="28" role="img" aria-label="java">
  <title>java</title>
  <g shape-rendering="crispEdges">
    <rect width="35" height="28" fill="#fc618d"/>
    <rect x="35" width="54.0" height="28" fill="#363537"/>
  </g>
  <g fill="#f7f1ff" text-anchor="middle" font-family="Verdana,Geneva,DejaVu Sans,sans-serif" text-rendering="geometricPrecision" font-size="14">
    <!-- Icon area -->
    
            <g transform="translate(9.5, 6.0)">
                <!-- Cup -->
                <path d="M2,6 L2,12 C2,14 4,16 6,16 L10,16 C12,16 14,14 14,12 L14,6 Z" fill="#f7f1ff"/>
                <!-- Handle -->
                <path d="M14,8 L16,8 C17,8 17,11 16,11 L14,11" stroke="#f7f1ff" stroke-width="2" fill="none"/>
                <!-- Steam -->
                <path d="M4,2 Q5,1 4,4 M8,1 Q9,2 8,4 M12,2 Q13,1 12,4" stroke="#f7f1ff" stroke-width="1.5" fill="none"/>
            </g>
            
    
    <!-- Divider X -->
    <text x="35" y="19.0" text-anchor="middle" font-weight="bold" font-family="Verdana,Geneva,DejaVu Sans,sans-serif" font-size="14" fill="#f7f1ff">X</text>
    
    <!-- Label -->
    <text x="62.0" y="19.0" font-weight="bold" fill="#f7f1ff">java</text>
  </g>
</svg>