<svg xmlns="http://www.w3.org/2000/svg" width="106.0" height="28" role="img" aria-label="python">
  <title>python</title>
  <g shape-rendering="crispEdges">
    <rect width="35" height="28" fill="#fce566"/>
    <rect x="35" width="71.0" height="28" fill="#161b22"/>
  </g>
  <g fill="#ffffff" text-anchor="middle" font-family="Verdana,Geneva,DejaVu Sans,sans-serif" text-rendering="geometricPrecision" font-size="14">
    <!-- Icon area -->
    
            <g transform="translate(9.5, 6.0) scale(0.8)">
                <!-- Top Snake -->
                <path d="M10,0 C13,0 16,1 16,4 L16,7 L13,7 L13,2 L5,2 L5,11 L8,11 L8,15 L0,15 L0,5 C0,1 3,0 6,0 L10,0 Z" fill="#ffffff"/>
                <rect x="11" y="1" width="2" height="2" fill="#fce566"/>
                
                <!-- Bottom Snake -->
                <path d="M10,20 C7,20 4,19 4,16 L4,13 L7,13 L7,18 L15,18 L15,9 L12,9 L12,5 L20,5 L20,15 C20,19 17,20 14,20 L10,20 Z" fill="#ffffff"/>
                <rect x="7" y="17" width="2" height="2" fill="#fce566"/>
            </g>
            
    
    <!-- Divider X -->
    <text x="35" y="19.0" text-anchor="middle" font-weight="bold" font-family="Verdana,Geneva,DejaVu Sans,sans-serif" font-size="14" fill="#ffffff">X</text>
    
    <!-- Label -->
    <text x="70.5" y="19.0" font-weight="bold" fill="#ffffff">python</text>
  </g>
</svg>