<svg xmlns="http://www.w3.org/2000/svg" width="114.5" height="28" role="img" aria-label="Discord">
  <title>Discord</title>
  <g shape-rendering="crispEdges">
    <rect width="35" height="28" fill="#5ad4e6"/>
    <rect x="35" width="79.5" height="28" fill="#161b22"/>
  </g>
  <g fill="#ffffff" text-anchor="middle" font-family="Verdana,Geneva,DejaVu Sans,sans-serif" text-rendering="geometricPrecision" font-size="14">
    <!-- Icon area -->
    
             <g transform="translate(9.5, 8.0)">
                 <path d="M13.5,0 C12.4,0 11.4,0 11.4,0 C11.4,0 10,1.7 10,1.7 L6,1.7 C6,1.7 4.6,0 4.6,0 C4.6,0 3.6,0 2.5,0 C0.5,0.2 0,2 0,2 L0,9 C0,11 1.5,12 1.5,12 L4,9 L12,9 L14.5,12 C14.5,12 16,11 16,9 L16,2 C16,2 15.5,0.2 13.5,0 Z M5,7 C4.2,7 3.5,6.3 3.5,5.5 C3.5,4.7 4.2,4 5,4 C5.8,4 6.5,4.7 6.5,5.5 C6.5,6.3 5.8,7 5,7 Z M11,7 C10.2,7 9.5,6.3 9.5,5.5 C9.5,4.7 10.2,4 11,4 C11.8,4 12.5,4.7 12.5,5.5 C12.5,6.3 11.8,7 11,7 Z" fill="#ffffff"/>
             </g>
             
    
    <!-- Divider X -->
    <text x="35" y="19.0" text-anchor="middle" font-weight="bold" font-family="Verdana,Geneva,DejaVu Sans,sans-serif" font-size="14" fill="#ffffff">X</text>
    
    <!-- Label -->
    <text x="74.75" y="19.0" font-weight="bold" fill="#ffffff">Discord</text>
  </g>
</svg>