<svg xmlns="http://www.w3.org/2000/svg" width="106.0" height="28" role="img" aria-label="github">
  <title>github</title>
  <g shape-rendering="crispEdges">
    <rect width="35" height="28" fill="#948ae3"/>
    <rect x="35" width="71.0" height="28" fill="#161b22"/>
  </g>
  <g fill="#ffffff" text-anchor="middle" font-family="Verdana,Geneva,DejaVu Sans,sans-serif" text-rendering="geometricPrecision" font-size="14">
    <!-- Icon area -->
    
             <g transform="translate(9.5, 6.0)">
                <path d="M8,0 C3.6,0 0,3.6 0,8 C0,11.5 2.3,14.5 5.5,15.6 C5.9,15.7 6,15.4 6,15.2 L6,13.8 C3.8,14.3 3.3,12.7 3.3,12.7 C2.9,11.8 2.4,11.6 2.4,11.6 C1.7,11.1 2.5,11.1 2.5,11.1 C3.3,11.2 3.7,11.9 3.7,11.9 C4.4,13.1 5.5,12.8 6,12.6 C6.1,12.1 6.3,11.7 6.5,11.5 C4.7,11.3 2.9,10.6 2.9,7.5 C2.9,6.6 3.2,5.9 3.8,5.3 C3.7,5.1 3.4,4.2 3.9,3.1 C3.9,3.1 4.6,2.9 6.1,3.9 C6.7,3.7 7.4,3.6 8,3.6 C8.6,3.6 9.3,3.7 9.9,3.9 C11.4,2.9 12.1,3.1 12.1,3.1 C12.6,4.2 12.3,5.1 12.2,5.3 C12.8,5.9 13.1,6.6 13.1,7.5 C13.1,10.6 11.2,11.3 9.5,11.5 C9.8,11.8 10,12.3 10,13 L10,15.2 C10,15.4 10.1,15.7 10.5,15.6 C13.7,14.5 16,11.5 16,8 C16,3.6 12.4,0 8,0 Z" fill="#ffffff"/>
             </g>
             
    
    <!-- Divider X -->
    <text x="35" y="19.0" text-anchor="middle" font-weight="bold" font-family="Verdana,Geneva,DejaVu Sans,sans-serif" font-size="14" fill="#ffffff">X</text>
    
    <!-- Label -->
    <text x="70.5" y="19.0" font-weight="bold" fill="#ffffff">github</text>
  </g>
</svg>