<svg xmlns="http://www.w3.org/2000/svg" width="114.5" height="28" role="img" aria-label="twitter">
  <title>twitter</title>
  <g shape-rendering="crispEdges">
    <rect width="35" height="28" fill="#cc0033"/>
    <rect x="35" width="79.5" height="28" fill="#333333"/>
  </g>
  <g fill="#1a1a1a" text-anchor="middle" font-family="Verdana,Geneva,DejaVu Sans,sans-serif" text-rendering="geometricPrecision" font-size="14">
    <!-- Icon area -->
    
             <g transform="translate(9.5, 7.0)">
                 <path d="M16,3 C15.4,3.3 14.8,3.5 14.1,3.6 C14.8,3.2 15.3,2.5 15.5,1.7 C14.9,2.1 14.2,2.3 13.5,2.4 C12.9,1.8 12,1.4 11.1,1.4 C9.3,1.4 7.9,2.9 7.9,4.7 C7.9,5 7.9,5.2 8,5.5 C5.3,5.4 2.8,4.1 1.2,2.1 C0.9,2.6 0.7,3.2 0.7,3.8 C0.7,5 1.3,6 2.2,6.6 C1.7,6.6 1.2,6.4 0.7,6.2 L0.7,6.2 C0.7,7.8 1.9,9.1 3.4,9.4 C3.1,9.5 2.8,9.5 2.5,9.5 C2.3,9.5 2.1,9.5 1.9,9.5 C2.3,10.8 3.5,11.8 5,11.8 C3.8,12.7 2.3,13.3 0.6,13.3 C0.3,13.3 0,13.3 0,13.3 C1.6,14.3 3.5,14.9 5.5,14.9 C12.1,14.9 15.7,9.4 15.7,4.6 L15.7,4.2 C16.4,3.6 17,2.9 17.5,2.1 L16,3 Z" fill="#1a1a1a" transform="scale(0.9)"/>
             </g>
             
    
    <!-- Divider X -->
    <text x="35" y="19.0" text-anchor="middle" font-weight="bold" font-family="Verdana,Geneva,DejaVu Sans,sans-serif" font-size="14" fill="#1a1a1a">X</text>
    
    <!-- Label -->
    <text x="74.75" y="19.0" font-weight="bold" fill="#1a1a1a">twitter</text>
  </g>
</svg>